<?xml version="1.0" encoding="UTF-8"?>
<svg width="1200pt" height="1200pt" version="1.1" viewBox="0 0 1200 1200" xmlns="http://www.w3.org/2000/svg">
 <path d="m973.2 288c-34.801-124.8-148.8-217.2-285.6-217.2-117.6 0-219.6 69.598-267.6 170.4-6 0-12-1.1992-18-1.1992-97.199 0-176.4 76.801-181.2 172.8-6 0-12-1.1992-18-1.1992-96 0-175.2 78-175.2 175.2 0 96 78 175.2 175.2 175.2h727.2c132 0 238.8-106.8 238.8-238.8 1.1992-117.6-84-214.8-195.6-235.2z"/>
 <path d="m385.2 1033.2-15.602-8.3984 6-2.3984c7.1992-3.6016 10.801-12 7.1992-19.199s-12-10.801-19.199-7.1992l-25.199 12-50.398-28.801 50.398-28.801 25.199 12c2.3984 1.1992 3.6016 1.1992 6 1.1992 6 0 10.801-3.6016 13.199-8.3984 3.6016-7.1992 0-15.602-7.1992-19.199l-6-2.3984 15.602-8.3984c7.1992-3.6016 9.6016-13.199 4.8008-20.398-3.6016-7.1992-13.199-9.6016-20.398-4.8008l-15.602 8.3984 1.1992-6c1.1992-8.3984-4.8008-15.602-13.199-15.602s-15.602 4.8008-15.602 13.199l-2.3984 22.797-50.398 28.801v-57.602l22.801-15.602c7.1992-4.8008 8.3984-14.398 3.6016-20.398-4.8008-7.1992-14.398-8.3984-20.398-3.6016l-4.8008 3.6016-0.003907-18c0-8.3984-6-14.398-14.398-14.398-8.3984 0-14.398 6-14.398 14.398v18l-6.0039-3.6016c-7.1992-4.8008-15.602-3.6016-20.398 3.6016-4.8008 7.1992-3.6016 15.602 3.6016 20.398l22.801 15.602v57.602l-50.398-28.801-3.6055-27.602c-1.1992-8.3984-8.3984-13.199-15.602-13.199-8.3984 1.1992-14.398 8.3984-13.199 15.602l1.1992 6-15.602-8.3984c-7.1992-3.6016-15.602-1.1992-20.398 4.8008-3.6016 7.1992-1.1992 15.602 4.8008 20.398l15.602 8.3984-6 2.3984c-7.1992 3.6016-10.801 12-7.1992 19.199 2.3984 4.8008 7.1992 8.3984 13.199 8.3984 2.3984 0 3.6016 0 6-1.1992l25.199-12 50.398 28.801-50.398 31.203-25.199-12c-7.1992-3.6016-15.602 0-19.199 7.1992-3.6016 7.1992 0 15.602 7.1992 19.199l6 2.3984-15.602 8.3984c-7.1992 3.6016-9.6016 13.199-4.8008 20.398 2.3984 4.8008 7.1992 7.1992 13.199 7.1992 2.3984 0 4.8008-1.1992 7.1992-2.3984l15.602-8.3984-1.1992 8.4023c-1.1992 8.3984 4.8008 15.602 13.199 15.602h1.1992c7.1992 0 14.398-6 14.398-13.199l2.3984-27.602 50.398-28.801v57.602l-22.801 15.602c-7.1992 4.8008-8.3984 14.398-3.6016 20.398 2.3984 3.6016 7.1992 6 12 6 2.3984 0 6-1.1992 8.3984-2.3984l4.8008-3.6016v18c0 8.3984 6 14.398 14.398 14.398 8.3984 0 14.398-6 14.398-14.398v-18l4.8008 3.6016c2.3984 2.3984 6 2.3984 8.3984 2.3984 4.8008 0 9.6016-2.3984 12-6 4.8008-7.1992 3.6016-15.602-3.6016-20.398l-22.801-15.602v-57.602l52.816 30 2.3984 27.602c1.1992 7.1992 7.1992 13.199 14.398 13.199h1.1992c8.3984-1.1992 14.398-8.3984 13.199-15.602l-1.1992-7.1992 15.602 8.3984c2.3984 1.1992 4.8008 2.3984 7.1992 2.3984 4.8008 0 9.6016-2.3984 13.199-7.1992 4.8047-7.1992 2.4023-16.797-4.7969-20.398z"/>
 <path d="m726 1033.2-15.602-8.3984 6-2.3984c7.1992-3.6016 10.801-12 7.1992-19.199-3.6016-7.1992-12-10.801-19.199-7.1992l-25.199 12-50.398-28.801 50.398-28.801 25.199 12c2.3984 1.1992 3.6016 1.1992 6 1.1992 6 0 10.801-3.6016 13.199-8.3984 3.6016-7.1992 0-15.602-7.1992-19.199l-6-2.3984 15.602-8.3984c7.1992-3.6016 9.6016-13.199 4.8008-20.398-3.6016-7.1992-13.199-9.6016-20.398-4.8008l-14.402 4.793 1.1992-6c1.1992-8.3984-4.8008-15.602-13.199-15.602s-15.602 4.8008-15.602 13.199l-2.3984 27.602-50.398 28.801v-57.602l22.801-15.602c7.1992-4.8008 8.3984-14.398 3.6016-20.398-4.8008-7.1992-14.398-8.3984-20.398-3.6016l-4.8008 3.6016-0.003907-19.199c0-8.3984-6-14.398-14.398-14.398-8.3984 0-14.398 6-14.398 14.398v18l-4.8008-3.6016c-7.1992-4.8008-15.602-3.6016-20.398 3.6016-4.8008 7.1992-3.6016 15.602 3.6016 20.398l22.801 15.602v57.602l-50.398-28.801-2.3984-27.602c-1.1992-8.3984-8.3984-13.199-15.602-13.199-8.3984 1.1992-14.398 8.3984-13.199 15.602l1.1992 6-15.602-8.3984c-7.1992-3.6016-15.602-1.1992-20.398 4.8008-3.6016 7.1992-1.1992 15.602 4.8008 20.398l15.602 8.3984-6 2.3984c-7.1992 3.6016-10.801 12-7.1992 19.199 2.3984 4.8008 7.1992 8.3984 13.199 8.3984 2.3984 0 3.6016 0 6-1.1992l25.199-12 50.398 28.801-50.398 28.801-25.199-12c-7.1992-3.6016-15.602 0-19.199 7.1992-3.6016 7.1992 0 15.602 7.1992 19.199l6 2.3984-15.602 8.3984c-7.1992 3.6016-9.6016 13.199-4.8008 20.398 2.3984 4.8008 7.1992 7.1992 13.199 7.1992 2.3984 0 4.8008-1.1992 7.1992-2.3984l15.602-8.3984-4.8086 10.805c-1.1992 8.3984 4.8008 15.602 13.199 15.602h1.1992c7.1992 0 14.398-6 14.398-13.199l2.3984-27.602 50.398-28.801v57.602l-22.801 15.602c-7.1992 4.8008-8.3984 14.398-3.6016 20.398 2.3984 3.6016 7.1992 6 12 6 2.3984 0 6-1.1992 8.3984-2.3984l4.8008-3.6016v18c0 8.3984 6 14.398 14.398 14.398 8.3984 0 14.398-6 14.398-14.398v-18l4.8008 3.6016c2.3984 2.3984 6 2.3984 8.3984 2.3984 4.8008 0 9.6016-2.3984 12-6 4.8008-7.1992 3.6016-15.602-3.6016-20.398l-22.801-15.602v-57.602l50.398 28.801 2.3984 27.602c1.1992 7.1992 7.1992 13.199 14.398 13.199h1.1992c8.3984-1.1992 14.398-8.3984 13.199-15.602l2.4219-6 15.602 8.3984c2.3984 1.1992 4.8008 2.3984 7.1992 2.3984 4.8008 0 9.6016-2.3984 13.199-7.1992 3.6016-7.1992 1.1992-16.797-6-20.398z"/>
 <path d="m1066.8 1033.2-15.602-8.3984 6-2.3984c7.1992-3.6016 10.801-12 7.1992-19.199-3.6016-7.1992-12-10.801-19.199-7.1992l-25.199 12-50.398-28.801 50.398-31.203 25.199 12c2.3984 1.1992 3.6016 1.1992 6 1.1992 6 0 10.801-3.6016 13.199-8.3984 3.6016-7.1992 0-15.602-7.1992-19.199l-6-2.3984 15.602-8.3984c7.1992-3.6016 9.6016-13.199 4.8008-20.398-3.6016-7.1992-13.199-9.6016-20.398-4.8008l-15.602 8.3984 1.1992-6c1.1992-8.3984-4.8008-15.602-13.199-15.602-8.3984 0-15.602 4.8008-15.602 13.199l-2.3984 27.602-50.398 28.801v-57.602l22.801-15.602c7.1992-4.8008 8.3984-14.398 3.6016-20.398-4.8008-7.1992-14.398-8.3984-20.398-3.6016l-6 3.6016-0.007812-20.402c0-8.3984-6-14.398-14.398-14.398-8.3984 0-14.398 6-14.398 14.398v18l-4.8008-3.6016c-7.1992-4.8008-15.602-3.6016-20.398 3.6016-4.8008 7.1992-3.6016 15.602 3.6016 20.398l22.801 15.602v57.602l-51.605-28.801-2.3984-27.602c-1.1992-8.3984-8.3984-13.199-15.602-13.199-8.3984 1.1992-14.398 8.3984-13.199 15.602l1.1992 6-15.602-8.3984c-7.1992-3.6016-15.602-1.1992-20.398 4.8008-3.6016 7.1992-1.1992 15.602 4.8008 20.398l15.602 8.3984-6 2.3984c-7.1992 3.6016-10.801 12-7.1992 19.199 2.3984 4.8008 7.1992 8.3984 13.199 8.3984 2.3984 0 3.6016 0 6-1.1992l25.199-12 50.398 28.801-50.398 28.801-25.199-12c-7.1992-3.6016-15.602 0-19.199 7.1992-3.6016 7.1992 0 15.602 7.1992 19.199l6 2.3984-15.602 8.3984c-7.1992 3.6016-9.6016 13.199-4.8008 20.398 2.3984 4.8008 7.1992 7.1992 13.199 7.1992 2.3984 0 4.8008-1.1992 7.1992-2.3984l15.602-8.3984-2.3984 10.805c-1.1992 8.3984 4.8008 15.602 13.199 15.602h1.1992c7.1992 0 14.398-6 14.398-13.199l3.6016-26.402 50.398-28.801v57.602l-22.801 15.602c-7.1992 4.8008-8.3984 14.398-3.6016 20.398 2.3984 3.6016 7.1992 6 12 6 2.3984 0 6-1.1992 8.3984-2.3984l4.8008-3.6016v18c0 8.3984 6 14.398 14.398 14.398s14.398-6 14.398-14.398v-18l4.8008 3.6016c2.3984 2.3984 6 2.3984 8.3984 2.3984 4.8008 0 9.6016-2.3984 12-6 4.8008-7.1992 3.6016-15.602-3.6016-20.398l-22.801-15.602v-57.602l50.398 28.801 2.3984 27.602c1.1992 7.1992 7.1992 13.199 14.398 13.199h1.1992c8.3984-1.1992 14.398-8.3984 13.199-15.602l-1.1992-7.1992 15.602 8.3984c2.3984 1.1992 4.8008 2.3984 7.1992 2.3984 4.8008 0 9.6016-2.3984 13.199-7.1992 7.2148-7.1992 4.8164-16.797-2.3828-20.398z"/>
</svg>
